<svg width="980" height="620" viewBox="0 0 980 620" xmlns="http://www.w3.org/2000/svg" font-family="'Segoe UI', Arial, sans-serif">
  <defs>
    <linearGradient id="agbgd" x1="0" y1="0" x2="1" y2="1">
      <stop offset="0%" stop-color="#0b1020"/>
      <stop offset="100%" stop-color="#030208"/>
    </linearGradient>
    <linearGradient id="agcardd" x1="0" y1="0" x2="0" y2="1">
      <stop offset="0%" stop-color="#172033"/>
      <stop offset="100%" stop-color="#0b0f1a"/>
    </linearGradient>
    <linearGradient id="agbard" x1="0" y1="0" x2="1" y2="0">
      <stop offset="0%" stop-color="#22d3ee"/>
      <stop offset="45%" stop-color="#8b5cf6"/>
      <stop offset="100%" stop-color="#f59e0b"/>
    </linearGradient>
    <pattern id="agdgrid" width="42" height="42" patternUnits="userSpaceOnUse">
      <path d="M42 0H0V42" fill="none" stroke="#334155" stroke-width="0.45" opacity="0.24"/>
    </pattern>
    <marker id="agdArrCyan" markerWidth="9" markerHeight="9" refX="7" refY="4.5" orient="auto">
      <path d="M0,0 L0,9 L9,4.5 Z" fill="#22d3ee"/>
    </marker>
    <marker id="agdArrPurple" markerWidth="9" markerHeight="9" refX="7" refY="4.5" orient="auto">
      <path d="M0,0 L0,9 L9,4.5 Z" fill="#8b5cf6"/>
    </marker>
    <marker id="agdArrAmber" markerWidth="9" markerHeight="9" refX="7" refY="4.5" orient="auto">
      <path d="M0,0 L0,9 L9,4.5 Z" fill="#f59e0b"/>
    </marker>
    <marker id="agdArrGreen" markerWidth="9" markerHeight="9" refX="7" refY="4.5" orient="auto">
      <path d="M0,0 L0,9 L9,4.5 Z" fill="#22c55e"/>
    </marker>
    <marker id="agdArrTeal" markerWidth="9" markerHeight="9" refX="7" refY="4.5" orient="auto">
      <path d="M0,0 L0,9 L9,4.5 Z" fill="#14b8a6"/>
    </marker>
  </defs>

  <rect width="980" height="620" fill="url(#agbgd)"/>
  <rect width="980" height="620" fill="url(#agdgrid)"/>
  <rect x="0" y="0" width="980" height="5" fill="url(#agbard)"/>

  <!-- Title -->
  <text x="490" y="34" text-anchor="middle" fill="#e5e7eb" font-size="17" font-weight="700" letter-spacing="1.4">Self-Hosted AI Gateway</text>
  <text x="490" y="54" text-anchor="middle" fill="#94a3b8" font-size="10">Telegram and email routed to Claude, Gemini CLI, or Codex — with git ops, streaming, and shared memory</text>

  <!-- ── INPUT LAYER ── -->
  <rect x="38" y="72" width="172" height="96" rx="10" fill="url(#agcardd)" stroke="#22d3ee" stroke-width="1.8"/>
  <rect x="38" y="72" width="172" height="5" rx="4" fill="#22d3ee"/>
  <text x="124" y="99" text-anchor="middle" fill="#67e8f9" font-size="12" font-weight="700">Telegram</text>
  <text x="124" y="117" text-anchor="middle" fill="#cbd5e1" font-size="9.5">Webhook via Cloudflare Tunnel</text>
  <text x="124" y="133" text-anchor="middle" fill="#cbd5e1" font-size="9.5">Secret token in URL path</text>
  <text x="124" y="160" text-anchor="middle" fill="#64748b" font-size="8.5">Single allowed user ID</text>

  <rect x="38" y="184" width="172" height="82" rx="10" fill="url(#agcardd)" stroke="#14b8a6" stroke-width="1.8"/>
  <rect x="38" y="184" width="172" height="5" rx="4" fill="#14b8a6"/>
  <text x="124" y="211" text-anchor="middle" fill="#5eead4" font-size="12" font-weight="700">Email (IMAP)</text>
  <text x="124" y="229" text-anchor="middle" fill="#cbd5e1" font-size="9.5">Polled via imapflow</text>
  <text x="124" y="247" text-anchor="middle" fill="#cbd5e1" font-size="9.5">SSL / STARTTLS</text>
  <text x="124" y="259" text-anchor="middle" fill="#64748b" font-size="8.5">Domain allowlist enforced</text>

  <line x1="210" y1="120" x2="268" y2="162" stroke="#22d3ee" stroke-width="1.8" marker-end="url(#agdArrCyan)"/>
  <line x1="210" y1="225" x2="268" y2="200" stroke="#14b8a6" stroke-width="1.8" marker-end="url(#agdArrTeal)"/>

  <!-- ── GATEWAY CORE ── -->
  <rect x="268" y="72" width="420" height="220" rx="12" fill="url(#agcardd)" stroke="#8b5cf6" stroke-width="2"/>
  <rect x="268" y="72" width="420" height="5" rx="4" fill="#8b5cf6"/>
  <text x="478" y="100" text-anchor="middle" fill="#c4b5fd" font-size="13" font-weight="700">AI Gateway — Node.js / Express</text>
  <text x="478" y="117" text-anchor="middle" fill="#64748b" font-size="9">Proxmox LXC · Cloudflare Tunnel · systemd service</text>

  <!-- parser.js -->
  <rect x="284" y="127" width="180" height="48" rx="7" fill="#1e1040" stroke="#8b5cf6" stroke-width="1.2"/>
  <text x="374" y="147" text-anchor="middle" fill="#c4b5fd" font-size="10" font-weight="700">parser.js</text>
  <text x="374" y="163" text-anchor="middle" fill="#94a3b8" font-size="8.5">engine prefix · verbose flag</text>
  <text x="374" y="171" text-anchor="middle" fill="#64748b" font-size="8">git ops validated vs REPOS env</text>

  <!-- memory.js -->
  <rect x="284" y="187" width="180" height="48" rx="7" fill="#052e16" stroke="#22c55e" stroke-width="1.2"/>
  <text x="374" y="207" text-anchor="middle" fill="#86efac" font-size="10" font-weight="700">memory.js</text>
  <text x="374" y="223" text-anchor="middle" fill="#94a3b8" font-size="8.5">prepend memory.md + history</text>
  <text x="374" y="231" text-anchor="middle" fill="#64748b" font-size="8">auto-compact at 20 entries</text>

  <!-- runner.js -->
  <rect x="482" y="127" width="188" height="48" rx="7" fill="#0c1a3a" stroke="#3b82f6" stroke-width="1.2"/>
  <text x="576" y="147" text-anchor="middle" fill="#93c5fd" font-size="10" font-weight="700">runner.js</text>
  <text x="576" y="163" text-anchor="middle" fill="#94a3b8" font-size="8.5">spawn · stdin/arg · 5-min timeout</text>
  <text x="576" y="171" text-anchor="middle" fill="#64748b" font-size="8">runStreaming() → onChunk every 1.5 s</text>

  <!-- git.js -->
  <rect x="482" y="187" width="188" height="48" rx="7" fill="#1c1008" stroke="#f59e0b" stroke-width="1.2"/>
  <text x="576" y="207" text-anchor="middle" fill="#fcd34d" font-size="10" font-weight="700">git.js</text>
  <text x="576" y="223" text-anchor="middle" fill="#94a3b8" font-size="8.5">simple-git · GIT_SSH_COMMAND</text>
  <text x="576" y="231" text-anchor="middle" fill="#64748b" font-size="8">clone lock · auto-log after pull</text>

  <line x1="374" y1="175" x2="374" y2="187" stroke="#22c55e" stroke-width="1.4" marker-end="url(#agdArrGreen)"/>
  <line x1="464" y1="151" x2="482" y2="151" stroke="#3b82f6" stroke-width="1.4" marker-end="url(#agdArrCyan)"/>
  <line x1="464" y1="211" x2="482" y2="211" stroke="#f59e0b" stroke-width="1.4" marker-end="url(#agdArrAmber)"/>

  <!-- reply.js -->
  <rect x="284" y="253" width="386" height="30" rx="6" fill="#0f172a" stroke="#334155" stroke-width="1"/>
  <text x="477" y="272" text-anchor="middle" fill="#94a3b8" font-size="9">reply.js — Telegram editMessageText (streaming) · SMTP sendMail (email)</text>

  <line x1="688" y1="182" x2="740" y2="182" stroke="#8b5cf6" stroke-width="2" marker-end="url(#agdArrPurple)"/>
  <text x="714" y="174" text-anchor="middle" fill="#c4b5fd" font-size="8.5">spawn</text>

  <!-- ── AI ENGINES ── -->
  <rect x="740" y="72" width="200" height="220" rx="12" fill="#0b1220" stroke="#334155" stroke-width="1.5"/>
  <rect x="740" y="72" width="200" height="5" rx="4" fill="url(#agbard)"/>
  <text x="840" y="100" text-anchor="middle" fill="#e5e7eb" font-size="12" font-weight="700">AI Engines</text>

  <rect x="756" y="112" width="168" height="52" rx="7" fill="url(#agcardd)" stroke="#22d3ee" stroke-width="1.4"/>
  <rect x="756" y="112" width="168" height="4" rx="4" fill="#22d3ee"/>
  <text x="840" y="131" text-anchor="middle" fill="#67e8f9" font-size="11" font-weight="700">Claude Code</text>
  <text x="840" y="147" text-anchor="middle" fill="#94a3b8" font-size="8.5">stdin prompt · --print --output-format text</text>
  <text x="840" y="158" text-anchor="middle" fill="#64748b" font-size="8">Default (no prefix) · Claude Max sub</text>

  <rect x="756" y="174" width="168" height="52" rx="7" fill="url(#agcardd)" stroke="#8b5cf6" stroke-width="1.4"/>
  <rect x="756" y="174" width="168" height="4" rx="4" fill="#8b5cf6"/>
  <text x="840" y="193" text-anchor="middle" fill="#c4b5fd" font-size="11" font-weight="700">Gemini CLI</text>
  <text x="840" y="209" text-anchor="middle" fill="#94a3b8" font-size="8.5">--yolo · prompt as -p arg (not stdin)</text>
  <text x="840" y="220" text-anchor="middle" fill="#64748b" font-size="8">Prefix: gemini: · bypasses agentic hang</text>

  <rect x="756" y="236" width="168" height="48" rx="7" fill="url(#agcardd)" stroke="#f59e0b" stroke-width="1.4"/>
  <rect x="756" y="236" width="168" height="4" rx="4" fill="#f59e0b"/>
  <text x="840" y="255" text-anchor="middle" fill="#fcd34d" font-size="11" font-weight="700">OpenAI Codex</text>
  <text x="840" y="271" text-anchor="middle" fill="#94a3b8" font-size="8.5">stdin prompt · --quiet</text>
  <text x="840" y="279" text-anchor="middle" fill="#64748b" font-size="8">Prefix: codex: · ChatGPT Plus sub</text>

  <!-- ── OUTPUT LAYER ── -->
  <line x1="124" y1="291" x2="124" y2="338" stroke="#22d3ee" stroke-width="1.6" marker-end="url(#agdArrCyan)"/>

  <rect x="38" y="338" width="172" height="72" rx="10" fill="url(#agcardd)" stroke="#22d3ee" stroke-width="1.5"/>
  <rect x="38" y="338" width="172" height="5" rx="4" fill="#22d3ee"/>
  <text x="124" y="361" text-anchor="middle" fill="#67e8f9" font-size="11" font-weight="700">Telegram Reply</text>
  <text x="124" y="377" text-anchor="middle" fill="#cbd5e1" font-size="9">editMessageText every 1.5 s</text>
  <text x="124" y="393" text-anchor="middle" fill="#64748b" font-size="8.5">Live stream · final edit on close</text>
  <text x="124" y="404" text-anchor="middle" fill="#64748b" font-size="8">Chunked for long output</text>

  <line x1="268" y1="270" x2="210" y2="290" stroke="#14b8a6" stroke-width="1.5" stroke-dasharray="5,3" opacity="0.7"/>
  <line x1="210" y1="290" x2="210" y2="338" stroke="#14b8a6" stroke-width="1.5" marker-end="url(#agdArrTeal)"/>

  <rect x="38" y="422" width="172" height="60" rx="10" fill="url(#agcardd)" stroke="#14b8a6" stroke-width="1.5"/>
  <rect x="38" y="422" width="172" height="5" rx="4" fill="#14b8a6"/>
  <text x="124" y="445" text-anchor="middle" fill="#5eead4" font-size="11" font-weight="700">Email Reply</text>
  <text x="124" y="461" text-anchor="middle" fill="#cbd5e1" font-size="9">SMTP via nodemailer</text>
  <text x="124" y="474" text-anchor="middle" fill="#64748b" font-size="8.5">Full output sent on close</text>

  <!-- ── BOTTOM FEATURE ROW ── -->
  <line x1="374" y1="291" x2="374" y2="420" stroke="#22c55e" stroke-width="1.4" stroke-dasharray="4,3" opacity="0.5" marker-end="url(#agdArrGreen)"/>
  <line x1="576" y1="291" x2="576" y2="420" stroke="#f59e0b" stroke-width="1.4" stroke-dasharray="4,3" opacity="0.5" marker-end="url(#agdArrAmber)"/>

  <rect x="268" y="420" width="182" height="68" rx="9" fill="#052e16" stroke="#22c55e" stroke-width="1.4"/>
  <rect x="268" y="420" width="182" height="4" rx="4" fill="#22c55e"/>
  <text x="359" y="440" text-anchor="middle" fill="#86efac" font-size="11" font-weight="700">Shared Memory</text>
  <text x="359" y="456" text-anchor="middle" fill="#94a3b8" font-size="9">memory.md — all AIs read on every prompt</text>
  <text x="359" y="470" text-anchor="middle" fill="#94a3b8" font-size="9">history/channel.json per Telegram chat</text>
  <text x="359" y="482" text-anchor="middle" fill="#64748b" font-size="8">memory: fact saves inline</text>

  <rect x="464" y="420" width="224" height="68" rx="9" fill="#1c1008" stroke="#f59e0b" stroke-width="1.4"/>
  <rect x="464" y="420" width="224" height="4" rx="4" fill="#f59e0b"/>
  <text x="576" y="440" text-anchor="middle" fill="#fcd34d" font-size="11" font-weight="700">Git Integration</text>
  <text x="576" y="456" text-anchor="middle" fill="#94a3b8" font-size="9">pull · push · commit · diff · log</text>
  <text x="576" y="470" text-anchor="middle" fill="#94a3b8" font-size="9">SSH key auth via GIT_SSH_COMMAND</text>
  <text x="576" y="482" text-anchor="middle" fill="#64748b" font-size="8">Clone lock · auto-log injected as AI context</text>

  <rect x="702" y="420" width="238" height="68" rx="9" fill="#1a0c00" stroke="#ea580c" stroke-width="1.4"/>
  <rect x="702" y="420" width="238" height="4" rx="4" fill="#ea580c"/>
  <text x="821" y="440" text-anchor="middle" fill="#fdba74" font-size="11" font-weight="700">Non-Obvious Fixes</text>
  <text x="821" y="456" text-anchor="middle" fill="#94a3b8" font-size="9">allowUnsafeSshCommand in simple-git</text>
  <text x="821" y="470" text-anchor="middle" fill="#94a3b8" font-size="9">Gemini: --yolo + -p arg (not stdin)</text>
  <text x="821" y="482" text-anchor="middle" fill="#64748b" font-size="8">Clone lock prevents concurrent ensureCloned race</text>

  <!-- ── USAGE EXAMPLES BAR ── -->
  <rect x="38" y="508" width="904" height="82" rx="12" fill="#0b1220" stroke="#334155" stroke-width="1.2"/>
  <rect x="38" y="508" width="904" height="5" rx="4" fill="url(#agbard)"/>
  <text x="490" y="531" text-anchor="middle" fill="#e5e7eb" font-size="11" font-weight="700">Message Format Examples</text>
  <text x="175" y="553" text-anchor="middle" fill="#67e8f9" font-size="9">No prefix → Claude (default)</text>
  <text x="175" y="568" text-anchor="middle" fill="#94a3b8" font-size="8.5">what's the fastest way to sort a list in Python?</text>
  <text x="175" y="581" text-anchor="middle" fill="#64748b" font-size="8">gemini: or codex: to switch engines</text>
  <text x="490" y="553" text-anchor="middle" fill="#c4b5fd" font-size="9">git ops inline</text>
  <text x="490" y="568" text-anchor="middle" fill="#94a3b8" font-size="8.5">gemini: pull homelab-docs and summarize changes</text>
  <text x="490" y="581" text-anchor="middle" fill="#64748b" font-size="8">git runs first · log auto-injected as context</text>
  <text x="805" y="553" text-anchor="middle" fill="#fcd34d" font-size="9">verbose + memory</text>
  <text x="805" y="568" text-anchor="middle" fill="#94a3b8" font-size="8.5">verbose: pull my-docs and diff it</text>
  <text x="805" y="581" text-anchor="middle" fill="#64748b" font-size="8">memory: always prefer YAML over JSON</text>
</svg>
