<svg width="980" height="560" viewBox="0 0 980 560" xmlns="http://www.w3.org/2000/svg" font-family="'Segoe UI', Arial, sans-serif">
  <defs>
    <linearGradient id="bg" x1="0" y1="0" x2="1" y2="1">
      <stop offset="0%" stop-color="#0b1020"/>
      <stop offset="100%" stop-color="#030208"/>
    </linearGradient>
    <linearGradient id="card" x1="0" y1="0" x2="0" y2="1">
      <stop offset="0%" stop-color="#172033"/>
      <stop offset="100%" stop-color="#0b0f1a"/>
    </linearGradient>
    <linearGradient id="bar" x1="0" y1="0" x2="1" y2="0">
      <stop offset="0%" stop-color="#ef4444"/>
      <stop offset="50%" stop-color="#8b5cf6"/>
      <stop offset="100%" stop-color="#22d3ee"/>
    </linearGradient>
    <pattern id="grid" width="42" height="42" patternUnits="userSpaceOnUse">
      <path d="M42 0H0V42" fill="none" stroke="#334155" stroke-width="0.45" opacity="0.24"/>
    </pattern>
    <marker id="arrowRed" markerWidth="9" markerHeight="9" refX="7" refY="4.5" orient="auto">
      <path d="M0,0 L0,9 L9,4.5 Z" fill="#ef4444"/>
    </marker>
    <marker id="arrowPurple" markerWidth="9" markerHeight="9" refX="7" refY="4.5" orient="auto">
      <path d="M0,0 L0,9 L9,4.5 Z" fill="#8b5cf6"/>
    </marker>
    <marker id="arrowCyan" markerWidth="9" markerHeight="9" refX="7" refY="4.5" orient="auto">
      <path d="M0,0 L0,9 L9,4.5 Z" fill="#22d3ee"/>
    </marker>
  </defs>

  <rect width="980" height="560" fill="url(#bg)"/>
  <rect width="980" height="560" fill="url(#grid)"/>
  <rect x="0" y="0" width="980" height="5" fill="url(#bar)"/>

  <text x="490" y="34" text-anchor="middle" fill="#e5e7eb" font-size="17" font-weight="700" letter-spacing="1.4">CyberLaunch USF 2026 — State Championship CTF</text>
  <text x="490" y="54" text-anchor="middle" fill="#94a3b8" font-size="10">Florida's largest state-sponsored high school cybersecurity competition · University of South Florida</text>

  <!-- Recon phase -->
  <rect x="38" y="76" width="200" height="140" rx="10" fill="url(#card)" stroke="#ef4444" stroke-width="1.5"/>
  <rect x="38" y="76" width="200" height="5" rx="4" fill="#ef4444"/>
  <text x="138" y="104" text-anchor="middle" fill="#fca5a5" font-size="12" font-weight="700">Reconnaissance</text>
  <text x="138" y="126" text-anchor="middle" fill="#cbd5e1" font-size="10">Nmap port scanning</text>
  <text x="138" y="144" text-anchor="middle" fill="#cbd5e1" font-size="10">Service version detection</text>
  <text x="138" y="162" text-anchor="middle" fill="#cbd5e1" font-size="10">OS fingerprinting</text>
  <text x="138" y="180" text-anchor="middle" fill="#cbd5e1" font-size="10">Attack surface mapping</text>
  <text x="138" y="202" text-anchor="middle" fill="#64748b" font-size="8.5">Kali Linux environment</text>

  <line x1="238" y1="146" x2="276" y2="146" stroke="#ef4444" stroke-width="2" marker-end="url(#arrowRed)"/>

  <!-- Exploitation phase -->
  <rect x="276" y="76" width="200" height="140" rx="10" fill="url(#card)" stroke="#8b5cf6" stroke-width="1.5"/>
  <rect x="276" y="76" width="200" height="5" rx="4" fill="#8b5cf6"/>
  <text x="376" y="104" text-anchor="middle" fill="#c4b5fd" font-size="12" font-weight="700">Exploitation</text>
  <text x="376" y="126" text-anchor="middle" fill="#cbd5e1" font-size="10">Metasploit Framework</text>
  <text x="376" y="144" text-anchor="middle" fill="#cbd5e1" font-size="10">SMB vulnerability exploit</text>
  <text x="376" y="162" text-anchor="middle" fill="#cbd5e1" font-size="10">Shell access and pivot</text>
  <text x="376" y="180" text-anchor="middle" fill="#cbd5e1" font-size="10">Privilege escalation paths</text>
  <text x="376" y="202" text-anchor="middle" fill="#64748b" font-size="8.5">EternalBlue / SMBv1 exploits</text>

  <line x1="476" y1="146" x2="514" y2="146" stroke="#8b5cf6" stroke-width="2" marker-end="url(#arrowPurple)"/>

  <!-- Post-exploitation -->
  <rect x="514" y="76" width="200" height="140" rx="10" fill="url(#card)" stroke="#22d3ee" stroke-width="1.5"/>
  <rect x="514" y="76" width="200" height="5" rx="4" fill="#22d3ee"/>
  <text x="614" y="104" text-anchor="middle" fill="#67e8f9" font-size="12" font-weight="700">Post-Exploitation</text>
  <text x="614" y="126" text-anchor="middle" fill="#cbd5e1" font-size="10">Hash extraction</text>
  <text x="614" y="144" text-anchor="middle" fill="#cbd5e1" font-size="10">Hashcat — GPU cracking</text>
  <text x="614" y="162" text-anchor="middle" fill="#cbd5e1" font-size="10">John the Ripper</text>
  <text x="614" y="180" text-anchor="middle" fill="#cbd5e1" font-size="10">Credential reuse testing</text>
  <text x="614" y="202" text-anchor="middle" fill="#64748b" font-size="8.5">NTLM · MD5 · bcrypt hashes</text>

  <!-- OSINT -->
  <rect x="754" y="76" width="188" height="140" rx="10" fill="url(#card)" stroke="#f59e0b" stroke-width="1.5"/>
  <rect x="754" y="76" width="188" height="5" rx="4" fill="#f59e0b"/>
  <text x="848" y="104" text-anchor="middle" fill="#fcd34d" font-size="12" font-weight="700">OSINT</text>
  <text x="848" y="126" text-anchor="middle" fill="#cbd5e1" font-size="10">Image geolocation</text>
  <text x="848" y="144" text-anchor="middle" fill="#cbd5e1" font-size="10">Metadata extraction</text>
  <text x="848" y="162" text-anchor="middle" fill="#cbd5e1" font-size="10">Reverse image search</text>
  <text x="848" y="180" text-anchor="middle" fill="#cbd5e1" font-size="10">Social footprint mapping</text>
  <text x="848" y="202" text-anchor="middle" fill="#64748b" font-size="8.5">ExifTool · Google Maps correlation</text>

  <!-- Tools used row -->
  <rect x="38" y="244" width="904" height="88" rx="10" fill="#0b1220" stroke="#334155" stroke-width="1.2"/>
  <rect x="38" y="244" width="904" height="5" rx="4" fill="url(#bar)"/>
  <text x="490" y="268" text-anchor="middle" fill="#e5e7eb" font-size="12" font-weight="700">Tools &amp; Environment</text>
  <text x="175" y="294" text-anchor="middle" fill="#fca5a5" font-size="10">Kali Linux</text>
  <text x="175" y="311" text-anchor="middle" fill="#64748b" font-size="8.5">Primary attack platform</text>
  <text x="340" y="294" text-anchor="middle" fill="#c4b5fd" font-size="10">Metasploit + Nmap</text>
  <text x="340" y="311" text-anchor="middle" fill="#64748b" font-size="8.5">Recon and exploit framework</text>
  <text x="490" y="294" text-anchor="middle" fill="#67e8f9" font-size="10">Hashcat + John the Ripper</text>
  <text x="490" y="311" text-anchor="middle" fill="#64748b" font-size="8.5">Password cracking tools</text>
  <text x="660" y="294" text-anchor="middle" fill="#fcd34d" font-size="10">ExifTool + OSINT techniques</text>
  <text x="660" y="311" text-anchor="middle" fill="#64748b" font-size="8.5">Image and metadata analysis</text>
  <text x="840" y="294" text-anchor="middle" fill="#86efac" font-size="10">Burp Suite + Wireshark</text>
  <text x="840" y="311" text-anchor="middle" fill="#64748b" font-size="8.5">Web and packet analysis</text>

  <!-- Challenge categories -->
  <rect x="38" y="354" width="560" height="80" rx="10" fill="url(#card)" stroke="#8b5cf6" stroke-width="1.5"/>
  <rect x="38" y="354" width="560" height="5" rx="4" fill="#8b5cf6"/>
  <text x="318" y="378" text-anchor="middle" fill="#c4b5fd" font-size="12" font-weight="700">Challenge Categories</text>
  <text x="135" y="400" text-anchor="middle" fill="#94a3b8" font-size="9">Web Exploitation</text>
  <text x="246" y="400" text-anchor="middle" fill="#94a3b8" font-size="9">Binary / Pwn</text>
  <text x="357" y="400" text-anchor="middle" fill="#94a3b8" font-size="9">Forensics</text>
  <text x="468" y="400" text-anchor="middle" fill="#94a3b8" font-size="9">Cryptography</text>
  <text x="579" y="400" text-anchor="middle" fill="#94a3b8" font-size="9">OSINT</text>
  <text x="135" y="416" text-anchor="middle" fill="#64748b" font-size="8">SQLi · XSS · LFI</text>
  <text x="246" y="416" text-anchor="middle" fill="#64748b" font-size="8">Buffer overflows</text>
  <text x="357" y="416" text-anchor="middle" fill="#64748b" font-size="8">File carving · steganography</text>
  <text x="468" y="416" text-anchor="middle" fill="#64748b" font-size="8">Hash cracking · RSA</text>
  <text x="579" y="416" text-anchor="middle" fill="#64748b" font-size="8">Image geo · social</text>

  <!-- Competition details -->
  <rect x="614" y="354" width="328" height="80" rx="10" fill="url(#card)" stroke="#22d3ee" stroke-width="1.5"/>
  <rect x="614" y="354" width="328" height="5" rx="4" fill="#22d3ee"/>
  <text x="778" y="378" text-anchor="middle" fill="#67e8f9" font-size="12" font-weight="700">Competition Details</text>
  <text x="778" y="400" text-anchor="middle" fill="#cbd5e1" font-size="10">State Championship — USF Tampa</text>
  <text x="778" y="418" text-anchor="middle" fill="#64748b" font-size="9">Florida's largest state-sponsored high school CTF</text>
  <text x="778" y="432" text-anchor="middle" fill="#64748b" font-size="9">Time-limited · team format · jeopardy style</text>

  <!-- Key outcome -->
  <rect x="38" y="456" width="904" height="60" rx="10" fill="url(#card)" stroke="#ef4444" stroke-width="1.5"/>
  <rect x="38" y="456" width="904" height="5" rx="4" fill="url(#bar)"/>
  <text x="490" y="480" text-anchor="middle" fill="#fca5a5" font-size="11" font-weight="700">Methodology Applied</text>
  <text x="490" y="500" text-anchor="middle" fill="#94a3b8" font-size="10">Recon → Exploit → Post-Exploit → Pivot → Document: structured attack methodology under competition time pressure</text>
</svg>
