<svg data-diagram-theme="light" width="980" height="620" viewBox="0 0 980 620" xmlns="http://www.w3.org/2000/svg" font-family="'Segoe UI', Arial, sans-serif">
  <defs>
    <linearGradient id="bg" x1="0" y1="0" x2="1" y2="1">
      <stop offset="0%" stop-color="#edf5ff"/>
      <stop offset="100%" stop-color="#f8fbff"/>
    </linearGradient>
    <linearGradient id="card" x1="0" y1="0" x2="0" y2="1">
      <stop offset="0%" stop-color="#f2f7ff"/>
      <stop offset="100%" stop-color="#ffffff"/>
    </linearGradient>
    <linearGradient id="bar" x1="0" y1="0" x2="1" y2="0">
      <stop offset="0%" stop-color="#5865F2"/>
      <stop offset="40%" stop-color="#8b5cf6"/>
      <stop offset="80%" stop-color="#22c55e"/>
      <stop offset="100%" stop-color="#f59e0b"/>
    </linearGradient>
    <pattern id="grid" width="42" height="42" patternUnits="userSpaceOnUse">
      <path d="M42 0H0V42" fill="none" stroke="#2563eb" stroke-width="0.45" opacity="0.18"/>
    </pattern>
    <marker id="arrDiscord" markerWidth="8" markerHeight="8" refX="6" refY="4" orient="auto">
      <path d="M0,0 L0,8 L8,4 z" fill="#5865F2"/>
    </marker>
    <marker id="arrPurple" markerWidth="8" markerHeight="8" refX="6" refY="4" orient="auto">
      <path d="M0,0 L0,8 L8,4 z" fill="#7c3aed"/>
    </marker>
    <marker id="arrBlue" markerWidth="8" markerHeight="8" refX="6" refY="4" orient="auto">
      <path d="M0,0 L0,8 L8,4 z" fill="#2563eb"/>
    </marker>
    <marker id="arrGreen" markerWidth="8" markerHeight="8" refX="6" refY="4" orient="auto">
      <path d="M0,0 L0,8 L8,4 z" fill="#16a34a"/>
    </marker>
  </defs>

  <rect width="980" height="620" fill="url(#bg)"/>
  <rect width="980" height="620" fill="url(#grid)"/>
  <rect x="0" y="0" width="980" height="5" fill="url(#bar)"/>

  <text x="490" y="34" text-anchor="middle" fill="#1e293b" font-size="17" font-weight="700" letter-spacing="1.4">Game Hosting &amp; Discord Automation</text>
  <text x="490" y="54" text-anchor="middle" fill="#64748b" font-size="10">Pelican Panel · Docker · Python discord.py · RCON · Proxmox LXC</text>

  <!-- Discord top -->
  <rect x="340" y="72" width="300" height="72" rx="10" fill="url(#card)" stroke="#5865F2" stroke-width="2"/>
  <rect x="340" y="72" width="300" height="5" rx="4" fill="#5865F2"/>
  <text x="490" y="100" text-anchor="middle" fill="#4f46e5" font-size="13" font-weight="700">Discord</text>
  <text x="490" y="118" text-anchor="middle" fill="#334155" font-size="10">mc-status channel · pinned embed</text>
  <text x="490" y="135" text-anchor="middle" fill="#64748b" font-size="9">/status · /players slash commands</text>

  <line x1="490" y1="144" x2="490" y2="174" stroke="#5865F2" stroke-width="2" marker-end="url(#arrDiscord)"/>

  <!-- mc-bot LXC -->
  <rect x="180" y="174" width="620" height="78" rx="10" fill="url(#card)" stroke="#7c3aed" stroke-width="2"/>
  <rect x="180" y="174" width="620" height="5" rx="4" fill="#7c3aed"/>
  <text x="490" y="200" text-anchor="middle" fill="#6d28d9" font-size="13" font-weight="700">mc-bot LXC — Dedicated Debian Container</text>
  <text x="490" y="220" text-anchor="middle" fill="#334155" font-size="10">Python discord.py · asyncio · systemd service · auto-restart on failure</text>
  <text x="490" y="238" text-anchor="middle" fill="#64748b" font-size="9">Custom RCON wire-protocol client · SSH chain to Proxmox for container metrics</text>
  <text x="490" y="246" text-anchor="middle" fill="#94a3b8" font-size="8.5">Updates Discord embed every 5 min by editing same pinned message</text>

  <!-- Branches down from mc-bot -->
  <line x1="335" y1="252" x2="335" y2="298" stroke="#7c3aed" stroke-width="2" marker-end="url(#arrPurple)"/>
  <text x="308" y="277" fill="#6d28d9" font-size="9" text-anchor="middle">RCON</text>
  <line x1="645" y1="252" x2="645" y2="298" stroke="#2563eb" stroke-width="2" marker-end="url(#arrBlue)"/>
  <text x="675" y="277" fill="#2563eb" font-size="9" text-anchor="middle">SSH</text>

  <!-- Wings LXC left -->
  <rect x="38" y="298" width="400" height="118" rx="10" fill="url(#card)" stroke="#7c3aed" stroke-width="1.8"/>
  <rect x="38" y="298" width="400" height="5" rx="4" fill="#7c3aed"/>
  <text x="238" y="324" text-anchor="middle" fill="#6d28d9" font-size="12" font-weight="700">Pelican Wings LXC</text>
  <text x="238" y="342" text-anchor="middle" fill="#64748b" font-size="10">Wings daemon · Docker runtime</text>
  <rect x="58" y="352" width="360" height="54" rx="7" fill="#dcfce7" stroke="#16a34a" stroke-width="1.4"/>
  <rect x="58" y="352" width="360" height="4" rx="4" fill="#16a34a"/>
  <text x="238" y="375" text-anchor="middle" fill="#15803d" font-size="11" font-weight="700">Docker Container — Minecraft Server</text>
  <text x="238" y="392" text-anchor="middle" fill="#475569" font-size="9.5">Fabric · isolated filesystem · resource limits</text>
  <text x="238" y="406" text-anchor="middle" fill="#16a34a" font-size="9" font-weight="600">mc.masternazz.com : 25565</text>

  <!-- Proxmox right -->
  <rect x="542" y="298" width="400" height="118" rx="10" fill="url(#card)" stroke="#2563eb" stroke-width="1.8"/>
  <rect x="542" y="298" width="400" height="5" rx="4" fill="#2563eb"/>
  <text x="742" y="324" text-anchor="middle" fill="#1d4ed8" font-size="12" font-weight="700">Proxmox Host — firstmoon</text>
  <text x="742" y="342" text-anchor="middle" fill="#64748b" font-size="10">pct exec into Wings LXC</text>
  <rect x="562" y="352" width="360" height="54" rx="7" fill="#eff6ff" stroke="#2563eb" stroke-width="1.4"/>
  <rect x="562" y="352" width="360" height="4" rx="4" fill="#2563eb"/>
  <text x="742" y="373" text-anchor="middle" fill="#1d4ed8" font-size="11" font-weight="700">docker stats · docker inspect</text>
  <text x="742" y="391" text-anchor="middle" fill="#475569" font-size="9.5">CPU · Memory · Disk · Container uptime</text>
  <text x="742" y="406" text-anchor="middle" fill="#94a3b8" font-size="8.5">Pulled via SSH chain — no direct Docker socket access</text>

  <!-- Data down -->
  <line x1="238" y1="416" x2="238" y2="452" stroke="#7c3aed" stroke-width="1.6" marker-end="url(#arrPurple)"/>
  <line x1="742" y1="416" x2="742" y2="452" stroke="#2563eb" stroke-width="1.6" marker-end="url(#arrBlue)"/>

  <!-- Data chips -->
  <rect x="58" y="452" width="360" height="56" rx="8" fill="#ede9fe" stroke="#7c3aed" stroke-width="1.2"/>
  <rect x="58" y="452" width="360" height="4" rx="4" fill="#7c3aed"/>
  <text x="238" y="474" text-anchor="middle" fill="#6d28d9" font-size="11" font-weight="700">Game State via RCON</text>
  <text x="238" y="491" text-anchor="middle" fill="#475569" font-size="9.5">Player list · Online count · Time of day</text>
  <text x="238" y="504" text-anchor="middle" fill="#94a3b8" font-size="8.5">Day number · Difficulty · Seed (private)</text>

  <rect x="562" y="452" width="360" height="56" rx="8" fill="#eff6ff" stroke="#2563eb" stroke-width="1.2"/>
  <rect x="562" y="452" width="360" height="4" rx="4" fill="#2563eb"/>
  <text x="742" y="474" text-anchor="middle" fill="#1d4ed8" font-size="11" font-weight="700">Container Metrics</text>
  <text x="742" y="491" text-anchor="middle" fill="#475569" font-size="9.5">CPU usage · Memory · Disk I/O</text>
  <text x="742" y="504" text-anchor="middle" fill="#94a3b8" font-size="8.5">Uptime from container start timestamp</text>

  <!-- Pelican Panel chip drawn FIRST so dashed uplink goes behind it -->
  <rect x="38" y="524" width="200" height="42" rx="7" fill="url(#card)" stroke="#7c3aed" stroke-width="1"/>
  <rect x="38" y="524" width="200" height="4" rx="4" fill="#7c3aed"/>
  <text x="138" y="543" text-anchor="middle" fill="#6d28d9" font-size="10" font-weight="700">Pelican Panel</text>
  <text x="138" y="559" text-anchor="middle" fill="#94a3b8" font-size="8.5">Web UI · server management · port allocations</text>

  <!-- Dashed uplink behind the panel chip since chip is already drawn -->
  <line x1="138" y1="524" x2="138" y2="416" stroke="#7c3aed" stroke-width="1" stroke-dasharray="4,3" opacity="0.4"/>

  <!-- Converge to embed -->
  <line x1="238" y1="508" x2="238" y2="546" stroke="#7c3aed" stroke-width="1.4" opacity="0.6"/>
  <line x1="238" y1="546" x2="490" y2="546" stroke="#7c3aed" stroke-width="1.4" opacity="0.6"/>
  <line x1="742" y1="508" x2="742" y2="546" stroke="#2563eb" stroke-width="1.4" opacity="0.6"/>
  <line x1="742" y1="546" x2="490" y2="546" stroke="#2563eb" stroke-width="1.4" opacity="0.6"/>
  <line x1="490" y1="546" x2="490" y2="566" stroke="#5865F2" stroke-width="2" marker-end="url(#arrDiscord)"/>

  <!-- Discord embed bottom -->
  <rect x="260" y="566" width="460" height="36" rx="8" fill="#eef2ff" stroke="#5865F2" stroke-width="1.4"/>
  <rect x="260" y="566" width="460" height="4" rx="4" fill="#5865F2"/>
  <text x="490" y="590" text-anchor="middle" fill="#4f46e5" font-size="10" font-weight="700">Discord Embed — auto-updates every 5 minutes · edits same pinned message</text>

  <text x="490" y="612" text-anchor="middle" fill="#94a3b8" font-size="8.5">mc-bot systemd service · auto-starts on boot · restarts on failure · dedicated LXC</text>
</svg>
