<svg width="1100" height="900" viewBox="0 0 1100 900" xmlns="http://www.w3.org/2000/svg" font-family="'Segoe UI', Arial, sans-serif">
  <defs>
    <linearGradient id="bg" x1="0" y1="0" x2="1" y2="1">
      <stop offset="0%" stop-color="#0b1020"/>
      <stop offset="100%" stop-color="#030208"/>
    </linearGradient>
    <linearGradient id="card" x1="0" y1="0" x2="0" y2="1">
      <stop offset="0%" stop-color="#172033"/>
      <stop offset="100%" stop-color="#0b0f1a"/>
    </linearGradient>
    <linearGradient id="bar" x1="0" y1="0" x2="1" y2="0">
      <stop offset="0%" stop-color="#22d3ee"/>
      <stop offset="30%" stop-color="#8b5cf6"/>
      <stop offset="60%" stop-color="#f59e0b"/>
      <stop offset="100%" stop-color="#22c55e"/>
    </linearGradient>
    <pattern id="grid" width="42" height="42" patternUnits="userSpaceOnUse">
      <path d="M42 0H0V42" fill="none" stroke="#334155" stroke-width="0.45" opacity="0.24"/>
    </pattern>
    <filter id="glow">
      <feGaussianBlur in="SourceGraphic" stdDeviation="3" result="b"/>
      <feMerge><feMergeNode in="b"/><feMergeNode in="SourceGraphic"/></feMerge>
    </filter>
    <marker id="arr" markerWidth="8" markerHeight="8" refX="6" refY="4" orient="auto">
      <path d="M0,0 L0,8 L8,4 z" fill="#8b5cf6"/>
    </marker>
    <marker id="arrAmber" markerWidth="8" markerHeight="8" refX="6" refY="4" orient="auto">
      <path d="M0,0 L0,8 L8,4 z" fill="#f59e0b"/>
    </marker>
    <marker id="arrTeal" markerWidth="8" markerHeight="8" refX="6" refY="4" orient="auto">
      <path d="M0,0 L0,8 L8,4 z" fill="#14b8a6"/>
    </marker>
    <marker id="arrCyan" markerWidth="8" markerHeight="8" refX="6" refY="4" orient="auto">
      <path d="M0,0 L0,8 L8,4 z" fill="#22d3ee"/>
    </marker>
  </defs>

  <rect width="1100" height="900" fill="url(#bg)"/>
  <rect width="1100" height="900" fill="url(#grid)"/>
  <rect x="0" y="0" width="1100" height="5" fill="url(#bar)"/>

  <text x="550" y="34" text-anchor="middle" fill="#e5e7eb" font-size="17" font-weight="700" letter-spacing="1.4">masternazz.com — Network Topology</text>
  <text x="550" y="54" text-anchor="middle" fill="#94a3b8" font-size="10">Enterprise homelab · 3-node Proxmox cluster · 25+ VMs &amp; LXCs · sanitized for public viewing</text>

  <!-- Internet -->
  <rect x="380" y="68" width="280" height="52" rx="10" fill="url(#card)" stroke="#22d3ee" stroke-width="1.8"/>
  <rect x="380" y="68" width="280" height="5" rx="4" fill="#22d3ee"/>
  <text x="520" y="93" text-anchor="middle" fill="#67e8f9" font-size="13" font-weight="700">Internet / ISP</text>
  <text x="520" y="111" text-anchor="middle" fill="#64748b" font-size="9.5">WAN uplink · DHCP from ISP</text>

  <line x1="520" y1="120" x2="520" y2="148" stroke="#22d3ee" stroke-width="2" stroke-dasharray="5,3" marker-end="url(#arrCyan)"/>

  <!-- OPNsense -->
  <rect x="60" y="148" width="780" height="82" rx="12" fill="url(#card)" stroke="#8b5cf6" stroke-width="2.5" filter="url(#glow)"/>
  <rect x="60" y="148" width="780" height="5" rx="4" fill="#8b5cf6"/>
  <text x="450" y="177" text-anchor="middle" fill="#c4b5fd" font-size="14" font-weight="700">OPNsense Firewall / Router — Dell Optiplex 5040 SFF</text>
  <text x="450" y="196" text-anchor="middle" fill="#e5e7eb" font-size="10">Edge firewall · WAN uplink · 10-VLAN segmentation · default-deny · NAT</text>
  <text x="450" y="213" text-anchor="middle" fill="#94a3b8" font-size="9.5">AdGuard DNS · Suricata IDS/IPS · ACME Wildcard TLS · no raw admin ports exposed</text>

  <!-- OPNsense → DMZ -->
  <line x1="840" y1="189" x2="900" y2="189" stroke="#f59e0b" stroke-width="1.8" marker-end="url(#arrAmber)"/>

  <!-- DMZ box -->
  <rect x="900" y="148" width="180" height="82" rx="10" fill="url(#card)" stroke="#f59e0b" stroke-width="1.6"/>
  <rect x="900" y="148" width="180" height="5" rx="4" fill="#f59e0b"/>
  <text x="990" y="178" text-anchor="middle" fill="#fcd34d" font-size="11" font-weight="700">Public DMZ</text>
  <text x="990" y="196" text-anchor="middle" fill="#94a3b8" font-size="9">Isolated subnet</text>
  <text x="990" y="212" text-anchor="middle" fill="#64748b" font-size="8.5">Cloudflared Tunnel</text>

  <!-- DMZ → Cloudflare -->
  <line x1="990" y1="230" x2="990" y2="255" stroke="#f59e0b" stroke-width="1.8" marker-end="url(#arrAmber)"/>
  <rect x="870" y="256" width="220" height="48" rx="8" fill="url(#card)" stroke="#f59e0b" stroke-width="1.3"/>
  <text x="980" y="277" text-anchor="middle" fill="#fcd34d" font-size="11" font-weight="600">Cloudflare CDN + WAF</text>
  <text x="980" y="295" text-anchor="middle" fill="#64748b" font-size="9">masternazz.com · public HTTPS ingress</text>

  <!-- Zero-trust remote box -->
  <rect x="880" y="320" width="210" height="100" rx="10" fill="url(#card)" stroke="#14b8a6" stroke-width="1.6"/>
  <rect x="880" y="320" width="210" height="5" rx="4" fill="#14b8a6"/>
  <text x="985" y="342" text-anchor="middle" fill="#5eead4" font-size="11" font-weight="700">Zero-Trust Access</text>
  <text x="985" y="360" text-anchor="middle" fill="#94a3b8" font-size="9">Headscale VPN mesh</text>
  <text x="985" y="376" text-anchor="middle" fill="#94a3b8" font-size="9">Tailscale exit node</text>
  <text x="985" y="393" text-anchor="middle" fill="#94a3b8" font-size="9">DERP relay server</text>
  <text x="985" y="409" text-anchor="middle" fill="#64748b" font-size="8.5">No exposed admin ports</text>

  <!-- OPNsense → Core Switch -->
  <line x1="430" y1="230" x2="430" y2="254" stroke="#8b5cf6" stroke-width="2" marker-end="url(#arr)"/>

  <!-- Core Switch -->
  <rect x="100" y="254" width="700" height="52" rx="10" fill="url(#card)" stroke="#8b5cf6" stroke-width="1.8"/>
  <rect x="100" y="254" width="700" height="5" rx="4" fill="#8b5cf6"/>
  <text x="450" y="278" text-anchor="middle" fill="#c4b5fd" font-size="13" font-weight="700">Cisco SG300-20 Core Switch + Netgear GS728TP Access</text>
  <text x="450" y="296" text-anchor="middle" fill="#94a3b8" font-size="9.5">1 Gbps full-duplex · 802.1Q VLAN trunking · PoE+ · STP · LACP</text>

  <!-- Switch → Proxmox, NAS, Wireless -->
  <line x1="220" y1="306" x2="220" y2="330" stroke="#8b5cf6" stroke-width="1.5" marker-end="url(#arr)"/>
  <line x1="450" y1="306" x2="450" y2="330" stroke="#8b5cf6" stroke-width="1.5" marker-end="url(#arr)"/>
  <line x1="680" y1="306" x2="680" y2="330" stroke="#8b5cf6" stroke-width="1.5" marker-end="url(#arr)"/>

  <!-- Proxmox Cluster -->
  <rect x="30" y="330" width="290" height="108" rx="10" fill="url(#card)" stroke="#f59e0b" stroke-width="1.8"/>
  <rect x="30" y="330" width="290" height="5" rx="4" fill="#f59e0b"/>
  <text x="175" y="354" text-anchor="middle" fill="#fcd34d" font-size="12" font-weight="700">Proxmox VE Cluster</text>
  <text x="175" y="372" text-anchor="middle" fill="#94a3b8" font-size="9.5">firstmoon — IBM M4 (primary)</text>
  <text x="175" y="388" text-anchor="middle" fill="#94a3b8" font-size="9.5">Node 2 — Dell R610</text>
  <text x="175" y="404" text-anchor="middle" fill="#94a3b8" font-size="9.5">Node 3 — Dell R410</text>
  <text x="175" y="421" text-anchor="middle" fill="#64748b" font-size="8.5">25+ VMs &amp; LXCs · corosync · live migration</text>
  <text x="175" y="435" text-anchor="middle" fill="#64748b" font-size="8.5">PBS backup · Synology NAS target</text>

  <!-- NAS Storage -->
  <rect x="335" y="330" width="232" height="108" rx="10" fill="url(#card)" stroke="#3b82f6" stroke-width="1.6"/>
  <rect x="335" y="330" width="232" height="5" rx="4" fill="#3b82f6"/>
  <text x="451" y="354" text-anchor="middle" fill="#93c5fd" font-size="12" font-weight="700">NAS Storage</text>
  <text x="451" y="372" text-anchor="middle" fill="#94a3b8" font-size="9.5">Synology DS920+ (primary)</text>
  <text x="451" y="388" text-anchor="middle" fill="#94a3b8" font-size="9.5">Synology (secondary)</text>
  <text x="451" y="404" text-anchor="middle" fill="#94a3b8" font-size="9.5">Thecus NAS (PBS target)</text>
  <text x="451" y="421" text-anchor="middle" fill="#64748b" font-size="8.5">3-2-1 backup strategy</text>

  <!-- Wireless / Physical -->
  <rect x="582" y="330" width="218" height="108" rx="10" fill="url(#card)" stroke="#22d3ee" stroke-width="1.6"/>
  <rect x="582" y="330" width="218" height="5" rx="4" fill="#22d3ee"/>
  <text x="691" y="354" text-anchor="middle" fill="#67e8f9" font-size="12" font-weight="700">Wireless / Physical</text>
  <text x="691" y="372" text-anchor="middle" fill="#94a3b8" font-size="9.5">Ubiquiti AP (PoE)</text>
  <text x="691" y="388" text-anchor="middle" fill="#94a3b8" font-size="9.5">PoE devices &amp; cameras</text>
  <text x="691" y="404" text-anchor="middle" fill="#64748b" font-size="8.5">Workstations · mobile</text>
  <text x="691" y="421" text-anchor="middle" fill="#64748b" font-size="8.5">Separate VLANs per class</text>

  <!-- Proxmox → Services layer (line drawn before services layer rect so it goes behind) -->
  <line x1="175" y1="438" x2="175" y2="460" stroke="#f59e0b" stroke-width="1.5" marker-end="url(#arr)"/>

  <!-- Services layer -->
  <rect x="30" y="460" width="820" height="226" rx="12" fill="#0b1220" stroke="#475569" stroke-width="1.2"/>
  <rect x="30" y="460" width="820" height="5" rx="4" fill="url(#bar)"/>
  <text x="440" y="484" text-anchor="middle" fill="#e5e7eb" font-size="11.5" font-weight="700" letter-spacing="0.8">Virtualized Services — Proxmox VMs &amp; LXC Containers</text>

  <!-- Category labels -->
  <text x="105" y="504" text-anchor="middle" fill="#64748b" font-size="8.5" font-weight="700" letter-spacing="0.8">NETWORK</text>
  <text x="278" y="504" text-anchor="middle" fill="#64748b" font-size="8.5" font-weight="700" letter-spacing="0.8">SECURITY</text>
  <text x="450" y="504" text-anchor="middle" fill="#64748b" font-size="8.5" font-weight="700" letter-spacing="0.8">APPS</text>
  <text x="625" y="504" text-anchor="middle" fill="#64748b" font-size="8.5" font-weight="700" letter-spacing="0.8">SERVERS</text>
  <text x="797" y="504" text-anchor="middle" fill="#64748b" font-size="8.5" font-weight="700" letter-spacing="0.8">MONITORING</text>

  <!-- Network chips -->
  <rect x="46" y="511" width="120" height="32" rx="6" fill="#0b1220" stroke="#22d3ee" stroke-width="1"/>
  <text x="106" y="524" text-anchor="middle" fill="#67e8f9" font-size="9.5" font-weight="600">NPMplus</text>
  <text x="106" y="538" text-anchor="middle" fill="#475569" font-size="8">Reverse proxy</text>

  <rect x="46" y="550" width="120" height="32" rx="6" fill="#0b1220" stroke="#22d3ee" stroke-width="1"/>
  <text x="106" y="563" text-anchor="middle" fill="#67e8f9" font-size="9.5" font-weight="600">AdGuard Home</text>
  <text x="106" y="577" text-anchor="middle" fill="#475569" font-size="8">DNS filtering</text>

  <rect x="46" y="589" width="120" height="32" rx="6" fill="#0b1220" stroke="#22d3ee" stroke-width="1"/>
  <text x="106" y="602" text-anchor="middle" fill="#67e8f9" font-size="9.5" font-weight="600">Headscale</text>
  <text x="106" y="616" text-anchor="middle" fill="#475569" font-size="8">VPN controller</text>

  <rect x="46" y="628" width="120" height="32" rx="6" fill="#0b1220" stroke="#22d3ee" stroke-width="1"/>
  <text x="106" y="641" text-anchor="middle" fill="#67e8f9" font-size="9.5" font-weight="600">Cloudflared</text>
  <text x="106" y="655" text-anchor="middle" fill="#475569" font-size="8">Tunnel LXC</text>

  <!-- Security chips -->
  <rect x="218" y="511" width="120" height="32" rx="6" fill="#0b1220" stroke="#ef4444" stroke-width="1"/>
  <text x="278" y="524" text-anchor="middle" fill="#fca5a5" font-size="9.5" font-weight="600">Wazuh SIEM</text>
  <text x="278" y="538" text-anchor="middle" fill="#475569" font-size="8">XDR · alerts</text>

  <rect x="218" y="550" width="120" height="32" rx="6" fill="#0b1220" stroke="#ef4444" stroke-width="1"/>
  <text x="278" y="563" text-anchor="middle" fill="#fca5a5" font-size="9.5" font-weight="600">Authentik SSO</text>
  <text x="278" y="577" text-anchor="middle" fill="#475569" font-size="8">Identity · MFA</text>

  <rect x="218" y="589" width="120" height="32" rx="6" fill="#0b1220" stroke="#ef4444" stroke-width="1"/>
  <text x="278" y="602" text-anchor="middle" fill="#fca5a5" font-size="9.5" font-weight="600">Uptime Kuma</text>
  <text x="278" y="616" text-anchor="middle" fill="#475569" font-size="8">Service monitoring</text>

  <rect x="218" y="628" width="120" height="32" rx="6" fill="#0b1220" stroke="#ef4444" stroke-width="1"/>
  <text x="278" y="641" text-anchor="middle" fill="#fca5a5" font-size="9.5" font-weight="600">MCP Server</text>
  <text x="278" y="655" text-anchor="middle" fill="#475569" font-size="8">55 AI tools</text>

  <!-- Apps chips -->
  <rect x="390" y="511" width="120" height="32" rx="6" fill="#0b1220" stroke="#8b5cf6" stroke-width="1"/>
  <text x="450" y="524" text-anchor="middle" fill="#c4b5fd" font-size="9.5" font-weight="600">Jellyfin</text>
  <text x="450" y="538" text-anchor="middle" fill="#475569" font-size="8">Media streaming</text>

  <rect x="390" y="550" width="120" height="32" rx="6" fill="#0b1220" stroke="#8b5cf6" stroke-width="1"/>
  <text x="450" y="563" text-anchor="middle" fill="#c4b5fd" font-size="9.5" font-weight="600">Home Assistant</text>
  <text x="450" y="577" text-anchor="middle" fill="#475569" font-size="8">Smart home</text>

  <rect x="390" y="589" width="120" height="32" rx="6" fill="#0b1220" stroke="#8b5cf6" stroke-width="1"/>
  <text x="450" y="602" text-anchor="middle" fill="#c4b5fd" font-size="9.5" font-weight="600">Ollama</text>
  <text x="450" y="616" text-anchor="middle" fill="#475569" font-size="8">Local LLM inference</text>

  <rect x="390" y="628" width="120" height="32" rx="6" fill="#0b1220" stroke="#8b5cf6" stroke-width="1"/>
  <text x="450" y="641" text-anchor="middle" fill="#c4b5fd" font-size="9.5" font-weight="600">AI Gateway</text>
  <text x="450" y="655" text-anchor="middle" fill="#475569" font-size="8">Telegram/email AI</text>

  <!-- Server chips -->
  <rect x="562" y="511" width="126" height="32" rx="6" fill="#0b1220" stroke="#22c55e" stroke-width="1"/>
  <text x="625" y="524" text-anchor="middle" fill="#86efac" font-size="9.5" font-weight="600">Pelican Panel</text>
  <text x="625" y="538" text-anchor="middle" fill="#475569" font-size="8">Game management</text>

  <rect x="562" y="550" width="126" height="32" rx="6" fill="#0b1220" stroke="#22c55e" stroke-width="1"/>
  <text x="625" y="563" text-anchor="middle" fill="#86efac" font-size="9.5" font-weight="600">Mailcow</text>
  <text x="625" y="577" text-anchor="middle" fill="#475569" font-size="8">Self-hosted email</text>

  <rect x="562" y="589" width="126" height="32" rx="6" fill="#0b1220" stroke="#22c55e" stroke-width="1"/>
  <text x="625" y="602" text-anchor="middle" fill="#86efac" font-size="9.5" font-weight="600">TeamSpeak 3</text>
  <text x="625" y="616" text-anchor="middle" fill="#475569" font-size="8">Voice server</text>

  <rect x="562" y="628" width="126" height="32" rx="6" fill="#0b1220" stroke="#22c55e" stroke-width="1"/>
  <text x="625" y="641" text-anchor="middle" fill="#86efac" font-size="9.5" font-weight="600">netboot.xyz</text>
  <text x="625" y="655" text-anchor="middle" fill="#475569" font-size="8">PXE boot server</text>

  <!-- Monitoring chips -->
  <rect x="736" y="511" width="100" height="32" rx="6" fill="#0b1220" stroke="#f59e0b" stroke-width="1"/>
  <text x="786" y="524" text-anchor="middle" fill="#fcd34d" font-size="9.5" font-weight="600">Homepage</text>
  <text x="786" y="538" text-anchor="middle" fill="#475569" font-size="8">Dashboard</text>

  <rect x="736" y="550" width="100" height="32" rx="6" fill="#0b1220" stroke="#f59e0b" stroke-width="1"/>
  <text x="786" y="563" text-anchor="middle" fill="#fcd34d" font-size="9.5" font-weight="600">Proxmox PBS</text>
  <text x="786" y="577" text-anchor="middle" fill="#475569" font-size="8">Backup server</text>

  <rect x="736" y="589" width="100" height="32" rx="6" fill="#0b1220" stroke="#f59e0b" stroke-width="1"/>
  <text x="786" y="602" text-anchor="middle" fill="#fcd34d" font-size="9.5" font-weight="600">Mailcow MTA</text>
  <text x="786" y="616" text-anchor="middle" fill="#475569" font-size="8">SMTP2GO relay</text>

  <rect x="736" y="628" width="100" height="32" rx="6" fill="#0b1220" stroke="#f59e0b" stroke-width="1"/>
  <text x="786" y="641" text-anchor="middle" fill="#fcd34d" font-size="9.5" font-weight="600">+ more</text>
  <text x="786" y="655" text-anchor="middle" fill="#475569" font-size="8">25+ total VMs/LXCs</text>

  <!-- Bottom info bar -->
  <rect x="30" y="704" width="1040" height="72" rx="10" fill="url(#card)" stroke="#475569" stroke-width="1"/>
  <text x="550" y="724" text-anchor="middle" fill="#e5e7eb" font-size="10" font-weight="700">Security Stack</text>
  <text x="550" y="742" text-anchor="middle" fill="#94a3b8" font-size="9">Suricata IDS/IPS · AdGuard DNS with Cloudflare DoT · Authentik OIDC + LDAP · ACME wildcard TLS · default-deny firewall · Wazuh SIEM</text>

  <text x="550" y="760" text-anchor="middle" fill="#94a3b8" font-size="9">Admin access via Headscale WireGuard mesh · Public services via Cloudflare Tunnel + NPMplus · 3-2-1 PBS backup strategy</text>

  <text x="550" y="775" text-anchor="middle" fill="#475569" font-size="8.5">Sanitized for public viewing — exact subnet addresses, host IPs, and rule IDs omitted</text>

  <!-- VLAN summary strip -->
  <rect x="30" y="792" width="1040" height="82" rx="10" fill="#0b1220" stroke="#334155" stroke-width="1"/>
  <text x="550" y="812" text-anchor="middle" fill="#94a3b8" font-size="9.5" font-weight="700">10-VLAN Segmentation</text>
  <text x="105" y="833" text-anchor="middle" fill="#3b82f6" font-size="9">VLAN 10 Mgmt</text>
  <text x="215" y="833" text-anchor="middle" fill="#8b5cf6" font-size="9">VLAN 6 Services</text>
  <text x="325" y="833" text-anchor="middle" fill="#14b8a6" font-size="9">VLAN 7 DMZ</text>
  <text x="435" y="833" text-anchor="middle" fill="#06b6d4" font-size="9">VLAN 5 Storage</text>
  <text x="550" y="833" text-anchor="middle" fill="#ef4444" font-size="9">VLAN 20 SIEM</text>
  <text x="660" y="833" text-anchor="middle" fill="#f59e0b" font-size="9">VLAN 2 Game</text>
  <text x="770" y="833" text-anchor="middle" fill="#22c55e" font-size="9">VLAN 4 IoT</text>
  <text x="880" y="833" text-anchor="middle" fill="#ec4899" font-size="9">VLAN 3 Guest</text>
  <text x="990" y="833" text-anchor="middle" fill="#fb923c" font-size="9">VLAN 99 OOB</text>
  <text x="550" y="858" text-anchor="middle" fill="#475569" font-size="8.5">All inter-VLAN traffic requires explicit firewall allow rule · default-deny between all segments</text>
  <text x="550" y="873" text-anchor="middle" fill="#334155" font-size="8">OPNsense 26.1 · corosync cluster · live migration capable · MCP server for AI-assisted operations</text>
</svg>
