<svg width="980" height="640" viewBox="0 0 980 640" xmlns="http://www.w3.org/2000/svg" font-family="'Segoe UI', Arial, sans-serif">
  <defs>
    <linearGradient id="bg" x1="0" y1="0" x2="1" y2="1">
      <stop offset="0%" stop-color="#0b1020"/>
      <stop offset="100%" stop-color="#030208"/>
    </linearGradient>
    <linearGradient id="card" x1="0" y1="0" x2="0" y2="1">
      <stop offset="0%" stop-color="#172033"/>
      <stop offset="100%" stop-color="#0b0f1a"/>
    </linearGradient>
    <linearGradient id="bar" x1="0" y1="0" x2="1" y2="0">
      <stop offset="0%" stop-color="#f59e0b"/>
      <stop offset="40%" stop-color="#8b5cf6"/>
      <stop offset="80%" stop-color="#3b82f6"/>
      <stop offset="100%" stop-color="#22c55e"/>
    </linearGradient>
    <pattern id="grid" width="42" height="42" patternUnits="userSpaceOnUse">
      <path d="M42 0H0V42" fill="none" stroke="#334155" stroke-width="0.45" opacity="0.24"/>
    </pattern>
    <filter id="glow">
      <feGaussianBlur in="SourceGraphic" stdDeviation="3" result="b"/>
      <feMerge><feMergeNode in="b"/><feMergeNode in="SourceGraphic"/></feMerge>
    </filter>
    <marker id="arrPurple" markerWidth="8" markerHeight="8" refX="6" refY="4" orient="auto">
      <path d="M0,0 L0,8 L8,4 z" fill="#8b5cf6"/>
    </marker>
    <marker id="arrBlue" markerWidth="8" markerHeight="8" refX="6" refY="4" orient="auto">
      <path d="M0,0 L0,8 L8,4 z" fill="#3b82f6"/>
    </marker>
    <marker id="arrGreen" markerWidth="8" markerHeight="8" refX="6" refY="4" orient="auto">
      <path d="M0,0 L0,8 L8,4 z" fill="#22c55e"/>
    </marker>
  </defs>

  <rect width="980" height="640" fill="url(#bg)"/>
  <rect width="980" height="640" fill="url(#grid)"/>
  <rect x="0" y="0" width="980" height="5" fill="url(#bar)"/>

  <text x="490" y="34" text-anchor="middle" fill="#e5e7eb" font-size="17" font-weight="700" letter-spacing="1.4">Proxmox VE Cluster</text>
  <text x="490" y="54" text-anchor="middle" fill="#94a3b8" font-size="10">3-node cluster · IBM M4 + Dell R610 + Dell R410 · 25+ VMs and LXCs · PBS backup · 3-2-1 strategy</text>

  <!-- 3 nodes -->
  <rect x="38" y="72" width="280" height="82" rx="10" fill="url(#card)" stroke="#f59e0b" stroke-width="2" filter="url(#glow)"/>
  <rect x="38" y="72" width="280" height="5" rx="4" fill="#f59e0b"/>
  <text x="178" y="100" text-anchor="middle" fill="#fcd34d" font-size="13" font-weight="700">firstmoon — IBM M4</text>
  <text x="178" y="120" text-anchor="middle" fill="#94a3b8" font-size="10">Primary compute node</text>
  <text x="178" y="138" text-anchor="middle" fill="#64748b" font-size="9">Most VMs and LXCs run here · live migration target</text>

  <rect x="350" y="72" width="280" height="82" rx="10" fill="url(#card)" stroke="#8b5cf6" stroke-width="1.8"/>
  <rect x="350" y="72" width="280" height="5" rx="4" fill="#8b5cf6"/>
  <text x="490" y="100" text-anchor="middle" fill="#c4b5fd" font-size="13" font-weight="700">Node 2 — Dell R610</text>
  <text x="490" y="120" text-anchor="middle" fill="#94a3b8" font-size="10">Online standby</text>
  <text x="490" y="138" text-anchor="middle" fill="#64748b" font-size="9">Cluster quorum member · live migration capable</text>

  <rect x="662" y="72" width="280" height="82" rx="10" fill="url(#card)" stroke="#3b82f6" stroke-width="1.8"/>
  <rect x="662" y="72" width="280" height="5" rx="4" fill="#3b82f6"/>
  <text x="802" y="100" text-anchor="middle" fill="#93c5fd" font-size="13" font-weight="700">Node 3 — Dell R410</text>
  <text x="802" y="120" text-anchor="middle" fill="#94a3b8" font-size="10">Online standby</text>
  <text x="802" y="138" text-anchor="middle" fill="#64748b" font-size="9">Cluster quorum member · corosync link</text>

  <!-- Cluster bus -->
  <line x1="178" y1="154" x2="178" y2="168" stroke="#8b5cf6" stroke-width="1.5" opacity="0.6"/>
  <line x1="490" y1="154" x2="490" y2="168" stroke="#8b5cf6" stroke-width="1.5" opacity="0.6"/>
  <line x1="802" y1="154" x2="802" y2="168" stroke="#8b5cf6" stroke-width="1.5" opacity="0.6"/>
  <line x1="178" y1="168" x2="802" y2="168" stroke="#8b5cf6" stroke-width="1.2" opacity="0.4"/>
  <line x1="490" y1="168" x2="490" y2="182" stroke="#8b5cf6" stroke-width="1.5" opacity="0.6" marker-end="url(#arrPurple)"/>
  <text x="700" y="163" fill="#c4b5fd" font-size="8.5" text-anchor="middle">corosync cluster link</text>

  <!-- Services grid label -->
  <text x="490" y="196" text-anchor="middle" fill="#c4b5fd" font-size="11" font-weight="700" letter-spacing="0.8">25+ Running VMs &amp; LXC Containers</text>

  <!-- Service chips 3x2 grid -->
  <rect x="38" y="206" width="290" height="72" rx="8" fill="#0b1220" stroke="#ef4444" stroke-width="1.3"/>
  <rect x="38" y="206" width="290" height="4" rx="4" fill="#ef4444"/>
  <text x="183" y="228" text-anchor="middle" fill="#fca5a5" font-size="11" font-weight="700">Security</text>
  <text x="183" y="247" text-anchor="middle" fill="#94a3b8" font-size="10">Wazuh SIEM / XDR · log collection</text>
  <text x="183" y="264" text-anchor="middle" fill="#64748b" font-size="8.5">Threat detection · alert triage · endpoint agents</text>

  <rect x="345" y="206" width="290" height="72" rx="8" fill="#0b1220" stroke="#8b5cf6" stroke-width="1.3"/>
  <rect x="345" y="206" width="290" height="4" rx="4" fill="#8b5cf6"/>
  <text x="490" y="228" text-anchor="middle" fill="#c4b5fd" font-size="11" font-weight="700">Identity</text>
  <text x="490" y="247" text-anchor="middle" fill="#94a3b8" font-size="10">Authentik SSO / OIDC / LDAP</text>
  <text x="490" y="264" text-anchor="middle" fill="#64748b" font-size="8.5">Centralized auth · MFA · user groups</text>

  <rect x="652" y="206" width="290" height="72" rx="8" fill="#0b1220" stroke="#14b8a6" stroke-width="1.3"/>
  <rect x="652" y="206" width="290" height="4" rx="4" fill="#14b8a6"/>
  <text x="797" y="228" text-anchor="middle" fill="#5eead4" font-size="11" font-weight="700">Media &amp; Home</text>
  <text x="797" y="247" text-anchor="middle" fill="#94a3b8" font-size="10">Jellyfin · Home Assistant</text>
  <text x="797" y="264" text-anchor="middle" fill="#64748b" font-size="8.5">Self-hosted streaming · smart home automation</text>

  <rect x="38" y="290" width="290" height="72" rx="8" fill="#0b1220" stroke="#22d3ee" stroke-width="1.3"/>
  <rect x="38" y="290" width="290" height="4" rx="4" fill="#22d3ee"/>
  <text x="183" y="312" text-anchor="middle" fill="#67e8f9" font-size="11" font-weight="700">Networking Services</text>
  <text x="183" y="331" text-anchor="middle" fill="#94a3b8" font-size="10">NPMplus · AdGuard · Headscale</text>
  <text x="183" y="348" text-anchor="middle" fill="#64748b" font-size="8.5">Reverse proxy · DNS · VPN mesh controller</text>

  <rect x="345" y="290" width="290" height="72" rx="8" fill="#0b1220" stroke="#f59e0b" stroke-width="1.3"/>
  <rect x="345" y="290" width="290" height="4" rx="4" fill="#f59e0b"/>
  <text x="490" y="312" text-anchor="middle" fill="#fcd34d" font-size="11" font-weight="700">Game Servers</text>
  <text x="490" y="331" text-anchor="middle" fill="#94a3b8" font-size="10">Pelican Panel + Wings · Docker</text>
  <text x="490" y="348" text-anchor="middle" fill="#64748b" font-size="8.5">Minecraft · web-based server management</text>

  <rect x="652" y="290" width="290" height="72" rx="8" fill="#0b1220" stroke="#22c55e" stroke-width="1.3"/>
  <rect x="652" y="290" width="290" height="4" rx="4" fill="#22c55e"/>
  <text x="797" y="312" text-anchor="middle" fill="#86efac" font-size="11" font-weight="700">AI &amp; Infrastructure</text>
  <text x="797" y="331" text-anchor="middle" fill="#94a3b8" font-size="10">Mailcow · Ollama · MCP Server</text>
  <text x="797" y="348" text-anchor="middle" fill="#64748b" font-size="8.5">Self-hosted email · local LLM · AI tooling</text>

  <!-- Smaller chips row -->
  <g fill="#0b1220" stroke-width="1">
    <rect x="38" y="376" width="148" height="36" rx="6" stroke="#8b5cf6"/>
    <rect x="195" y="376" width="148" height="36" rx="6" stroke="#8b5cf6"/>
    <rect x="352" y="376" width="148" height="36" rx="6" stroke="#6366f1"/>
    <rect x="509" y="376" width="148" height="36" rx="6" stroke="#6366f1"/>
    <rect x="666" y="376" width="136" height="36" rx="6" stroke="#475569"/>
    <rect x="811" y="376" width="131" height="36" rx="6" stroke="#475569"/>
  </g>
  <text x="112" y="391" text-anchor="middle" fill="#c4b5fd" font-size="9.5" font-weight="600">Homepage</text>
  <text x="112" y="405" text-anchor="middle" fill="#64748b" font-size="8">Dashboard launcher</text>
  <text x="269" y="391" text-anchor="middle" fill="#c4b5fd" font-size="9.5" font-weight="600">netboot.xyz</text>
  <text x="269" y="405" text-anchor="middle" fill="#64748b" font-size="8">PXE boot server</text>
  <text x="426" y="391" text-anchor="middle" fill="#a5b4fc" font-size="9.5" font-weight="600">TeamSpeak</text>
  <text x="426" y="405" text-anchor="middle" fill="#64748b" font-size="8">Voice server</text>
  <text x="583" y="391" text-anchor="middle" fill="#a5b4fc" font-size="9.5" font-weight="600">Uptime Kuma</text>
  <text x="583" y="405" text-anchor="middle" fill="#64748b" font-size="8">Service monitoring</text>
  <text x="734" y="391" text-anchor="middle" fill="#94a3b8" font-size="9.5" font-weight="600">AI Gateway</text>
  <text x="734" y="405" text-anchor="middle" fill="#64748b" font-size="8">Telegram/email AI</text>
  <text x="876" y="391" text-anchor="middle" fill="#94a3b8" font-size="9.5" font-weight="600">Cloudflared</text>
  <text x="876" y="405" text-anchor="middle" fill="#64748b" font-size="8">Tunnel LXC</text>

  <!-- Arrow to backup -->
  <line x1="490" y1="422" x2="490" y2="452" stroke="#3b82f6" stroke-width="2" marker-end="url(#arrBlue)"/>
  <text x="530" y="440" fill="#93c5fd" font-size="9">backup</text>

  <!-- 3-2-1 backup section -->
  <rect x="38" y="452" width="444" height="80" rx="10" fill="url(#card)" stroke="#3b82f6" stroke-width="1.8"/>
  <rect x="38" y="452" width="444" height="5" rx="4" fill="#3b82f6"/>
  <text x="260" y="476" text-anchor="middle" fill="#93c5fd" font-size="12" font-weight="700">Proxmox Backup Server (PBS)</text>
  <text x="260" y="495" text-anchor="middle" fill="#94a3b8" font-size="9.5">Thecus NAS — Primary backup target</text>
  <text x="260" y="512" text-anchor="middle" fill="#64748b" font-size="9">Deduplicated incremental · fast restore · encrypted at rest</text>

  <rect x="498" y="452" width="444" height="80" rx="10" fill="url(#card)" stroke="#22c55e" stroke-width="1.8"/>
  <rect x="498" y="452" width="444" height="5" rx="4" fill="#22c55e"/>
  <text x="720" y="476" text-anchor="middle" fill="#86efac" font-size="12" font-weight="700">Synology NAS</text>
  <text x="720" y="495" text-anchor="middle" fill="#94a3b8" font-size="9.5">Secondary — independent backup target</text>
  <text x="720" y="512" text-anchor="middle" fill="#64748b" font-size="9">Different media · separate failure domain · offsite planned</text>

  <!-- Bottom label -->
  <rect x="200" y="552" width="580" height="52" rx="10" fill="#0b1220" stroke="#475569" stroke-width="1"/>
  <text x="490" y="572" text-anchor="middle" fill="#94a3b8" font-size="10" font-weight="700">3-2-1 Backup Strategy</text>
  <text x="490" y="590" text-anchor="middle" fill="#64748b" font-size="9">3 copies of data · 2 different storage media · 1 offsite (planned)</text>
  <text x="490" y="603" text-anchor="middle" fill="#475569" font-size="8.5">Cluster managed via Proxmox VE web UI · corosync · live migration capable</text>
</svg>
